<svg xmlns="http://www.w3.org/2000/svg"  viewBox="0 0 100 100" width="100px" height="100px"><path d="M88.44,69.078c3.566-5.664,4.441-14.321,0.179-19.768c-0.82-1.047-1.814-1.904-2.923-2.541	C85.896,45.07,86,43.383,86,41.405c0-9.503-3.382-18.188-9.522-24.454c-6.167-6.294-14.728-9.76-24.106-9.76	c-9.378,0-17.939,3.466-24.106,9.76c-6.14,6.266-9.522,14.951-9.522,24.454c0,1.829,0.09,3.417,0.262,4.998	c-1.394,0.658-2.636,1.644-3.625,2.908c-4.452,5.688-3.247,14.983,0.722,20.582c-0.438,1.553-0.81,2.999-1.029,4.245	c-1.512,8.64,2.835,15.769,11.344,18.605c2.935,0.978,6.527,1.618,10.955,1.95c4.643,2.485,9.631,4.028,13.844,4.266l0.147,0.008	l0.147,0l1.085-0.003l0.136,0l0.136-0.008c4.137-0.235,9.056-1.756,13.656-4.206c4.894-0.312,8.676-0.956,11.832-2.008	c8.509-2.837,12.856-9.966,11.344-18.605C89.445,72.673,88.99,70.983,88.44,69.078z" opacity=".35"/><path fill="#f2f2f2" d="M86.44,67.078c3.566-5.664,4.441-14.321,0.179-19.768c-0.82-1.047-1.814-1.904-2.923-2.541	C83.896,43.07,84,41.383,84,39.405c0-9.503-3.382-18.188-9.522-24.454c-6.167-6.294-14.728-9.76-24.106-9.76	c-9.378,0-17.939,3.466-24.106,9.76c-6.14,6.266-9.522,14.951-9.522,24.454c0,1.829,0.09,3.417,0.262,4.998	c-1.394,0.658-2.636,1.644-3.625,2.908c-4.452,5.688-3.247,14.983,0.722,20.582c-0.438,1.553-0.81,2.999-1.029,4.245	c-1.512,8.64,2.835,15.769,11.344,18.605c2.935,0.978,6.527,1.618,10.955,1.95c4.643,2.485,9.631,4.028,13.844,4.266l0.147,0.008	l0.147,0l1.085-0.003l0.136,0l0.136-0.008c4.137-0.235,9.056-1.756,13.656-4.206c4.894-0.312,8.676-0.956,11.832-2.008	c8.509-2.837,12.856-9.966,11.344-18.605C87.445,70.673,86.99,68.983,86.44,67.078z"/><path fill="#40396e" d="M47,88c-6.674,0-15,0-21-2c-6.077-2.026-9.104-6.691-8-13c0.868-4.959,5-15,5-23l21,9L47,88z"/><path fill="#40396e" d="M53.776,88c6.674,0,15,0,21-2c6.077-2.026,9.104-6.691,8-13c-0.868-4.959-5-15-5-23l-21,9L53.776,88z"/><path fill="#ffc7a3" d="M81.5,51.317c-1.844-2.356-5.112-1.351-6.575,0.741c0.844-4.43,0.452-7.502,0.452-11.063 c0-15.62-11.171-25.27-24.877-25.944v-0.038c-0.168,0.003-0.333,0.014-0.5,0.019c-0.167-0.006-0.332-0.016-0.5-0.019v0.038 c-13.706,0.675-24.877,10.324-24.877,25.944c0,3.562-0.392,6.633,0.452,11.063c-1.463-2.092-4.731-3.097-6.575-0.741 c-2.853,3.644-1.201,10.895,1.771,13.851c2.768,2.754,4.229,2.333,5.922,1.764c0.012-0.004,1.68,9.529,4.308,13.568 c3.024,4.647,12.317,9.588,19,9.967h1c6.683-0.38,15.976-5.32,19-9.967c2.628-4.039,4.296-13.572,4.308-13.568 c1.692,0.568,3.153,0.99,5.922-1.764C82.701,62.211,84.353,54.961,81.5,51.317z"/><path fill="#40396e" d="M49.5,91.967c-7.155-0.404-16.958-5.579-20.257-10.649c-2.026-3.113-3.485-9.056-4.211-12.537 c-1.646,0.257-3.411-0.154-5.819-2.55c-3.617-3.598-5.201-11.614-1.894-15.839c1.01-1.291,2.455-1.974,4.061-1.933 c0.591,0.016,1.182,0.129,1.75,0.328c-0.145-1.931-0.098-3.64-0.052-5.313c0.022-0.815,0.045-1.633,0.045-2.479 c0-15.29,10.67-26.525,25.988-27.425c0.134-0.04,0.275-0.062,0.416-0.057l0.522,0.02l0.425-0.02 c0.149,0.006,0.299,0.018,0.441,0.059c15.306,0.909,25.963,12.141,25.963,27.424c0,0.846,0.022,1.664,0.045,2.479 c0.046,1.673,0.093,3.383-0.052,5.313c0.568-0.199,1.159-0.313,1.75-0.328c1.588-0.043,3.05,0.643,4.061,1.933c0,0,0,0,0,0 c3.307,4.225,1.723,12.241-1.894,15.839c-2.409,2.396-4.17,2.808-5.819,2.55c-0.726,3.48-2.185,9.423-4.211,12.537 c-3.299,5.071-13.102,10.245-20.172,10.647L49.5,91.967z M26.192,65.432c0.264,0,0.526,0.07,0.759,0.206 c0.588,0.345,0.69,0.881,0.746,1.169c1.122,5.879,2.64,10.692,4.061,12.875c2.821,4.336,11.651,8.937,17.828,9.288l0.915-0.002 c6.091-0.349,14.922-4.949,17.743-9.285c1.42-2.183,2.938-6.996,4.061-12.875c0.055-0.288,0.158-0.825,0.746-1.169 c0.375-0.22,0.824-0.267,1.236-0.128c1.434,0.482,2.223,0.749,4.386-1.406c2.627-2.613,3.922-8.957,1.647-11.863 c-0.427-0.544-0.948-0.805-1.617-0.783c-0.931,0.025-1.954,0.612-2.547,1.459c-0.406,0.581-1.162,0.799-1.813,0.522 c-0.652-0.275-1.023-0.968-0.891-1.663c0.61-3.201,0.543-5.639,0.472-8.221c-0.023-0.843-0.046-1.688-0.046-2.562 c0-13.931-9.424-23.755-23.451-24.446c-0.071-0.003-0.141-0.012-0.209-0.025l-0.169,0.007l-0.267-0.007 c-0.068,0.013-0.137,0.022-0.208,0.025c-14.027,0.691-23.451,10.515-23.451,24.446c0,0.874-0.023,1.719-0.046,2.562 c-0.071,2.582-0.138,5.02,0.472,8.221c0.132,0.695-0.239,1.388-0.891,1.663c-0.651,0.277-1.406,0.058-1.813-0.522 c-0.593-0.848-1.616-1.434-2.547-1.459c-0.667-0.022-1.191,0.239-1.617,0.784c-2.275,2.906-0.979,9.25,1.647,11.863 c2.163,2.152,2.952,1.887,4.386,1.406C25.871,65.458,26.032,65.432,26.192,65.432z"/><circle cx="37.994" cy="55" r="3" fill="#40396e"/><circle cx="62.006" cy="55" r="3" fill="#40396e"/><path fill="#40396e" d="M26.996,50.572c0,0,1.059-3.728,1.139-9.039c0,0,29.191,5.185,33.143-23.857 c0,0,0-4.09-10.906-4.771C36.698,12.05,23.825,25.855,23.825,36.761S26.996,50.572,26.996,50.572z"/><path fill="#40396e" d="M58.551,16.604c0,0-4.894,22.294,17.04,26.292l2.009-2.726l-2.69-9.543l-6.135-12.951l-6.816-2.045 L58.551,16.604z"/><path fill="#40396e" d="M75.702,51.986c-0.126,0-0.256-0.012-0.385-0.037c-1.11-0.212-1.837-1.283-1.626-2.392 c0.791-4.148,1.219-6.529,1.219-10.153c0-14.558-10.32-25.124-24.538-25.124c-1.13,0-2.045-0.915-2.045-2.045 s0.915-2.045,2.045-2.045C66.961,10.191,79,22.477,79,39.405c0,3.949-0.454,6.525-1.291,10.918 C77.522,51.304,76.664,51.986,75.702,51.986z"/><path fill="#40396e" d="M25.042,52.007c-0.963,0-1.82-0.682-2.007-1.663c-0.837-4.393-1.291-6.991-1.291-10.939 c0-16.927,12.039-29.214,28.628-29.214c1.13,0,2.045,0.915,2.045,2.045s-0.915,2.045-2.045,2.045 c-14.218,0-24.538,10.566-24.538,25.124c0,3.624,0.429,6.026,1.219,10.174c0.211,1.109-0.517,2.18-1.626,2.392 C25.298,51.995,25.169,52.007,25.042,52.007z"/><path fill="#40396e" d="M28.471,41.181c0,0-0.191,6.582-1.484,10.795c-0.679,2.214-2.681,2.25-3.279,0.479	c-0.829-2.455-0.694-9.215-0.407-12.136C26.125,39.984,28.471,41.181,28.471,41.181z"/><path fill="#40396e" d="M71.677,41.181c0,0,0.191,6.582,1.484,10.795c0.679,2.214,2.681,2.25,3.279,0.479	c0.829-2.455,0.694-9.215,0.407-12.136C74.023,39.984,71.677,41.181,71.677,41.181z"/></svg>